<?xml version="1.0" encoding="UTF-8"?>
<svg width="100pt" height="100pt" version="1.1" viewBox="0 0 100 100" xmlns="http://www.w3.org/2000/svg">
 <path d="m42.277 32.621c-0.8125-0.81641-0.8125-2.1328 0-2.9492 0.8125-0.8125 2.1328-0.8125 2.9453 0l16.668 16.668c0.8125 0.8125 0.8125 2.1328 0 2.9453l-16.668 16.668c-0.8125 0.8125-2.1328 0.8125-2.9453 0s-0.8125-2.1328 0-2.9453l15.191-15.195zm41.055 15.297c0-19.562-15.852-35.418-35.414-35.418s-35.418 15.855-35.418 35.418 15.855 35.414 35.418 35.414 35.414-15.852 35.414-35.414zm4.168 0c0 21.863-17.719 39.582-39.582 39.582s-39.586-17.719-39.586-39.582 17.723-39.586 39.586-39.586 39.582 17.723 39.582 39.586z" fill="#363471"/>
</svg>
