<?xml version="1.0" encoding="UTF-8"?>
<svg width="100pt" height="100pt" version="1.1" viewBox="0 0 100 100" xmlns="http://www.w3.org/2000/svg">
 <path d="m53.555 63.008c0.81641 0.8125 0.81641 2.1328 0 2.9453-0.8125 0.8125-2.1328 0.8125-2.9453 0l-16.664-16.668c-0.81641-0.8125-0.81641-2.1328 0-2.9453l16.664-16.668c0.8125-0.8125 2.1328-0.8125 2.9453 0 0.81641 0.81641 0.81641 2.1328 0 2.9492l-15.191 15.191zm29.777-15.09c0-19.562-15.852-35.418-35.414-35.418s-35.418 15.855-35.418 35.418 15.855 35.414 35.418 35.414 35.414-15.852 35.414-35.414zm4.168 0c0 21.863-17.719 39.582-39.582 39.582s-39.586-17.719-39.586-39.582 17.723-39.586 39.586-39.586 39.582 17.723 39.582 39.586z" fill="#363471"/>
</svg>
