<?xml version="1.0" encoding="UTF-8"?>
<svg width="100pt" height="100pt" version="1.1" viewBox="0 0 100 100" xmlns="http://www.w3.org/2000/svg">
 <path d="m50.594 20.496c6.043 6.043 7.8281 14.73 5.3711 22.34l29.984 29.984 1.0156 13.125-17.988-1.8125v-8.4844h-8.4844v-8.4844h-8.4844l-10.188-10.188c-7.6094 2.4609-16.297 0.67578-22.34-5.3711-8.5898-8.5898-8.5898-22.52 0-31.113 8.5898-8.5898 22.52-8.5898 31.113 0zm-16.262 6.3633c-2.3438-2.3438-6.1406-2.3438-8.4844 0s-2.3438 6.1406 0 8.4844 6.1406 2.3438 8.4844 0 2.3438-6.1406 0-8.4844z" fill="#ffd600"/>
</svg>
