<?xml version="1.0" encoding="UTF-8"?>
<svg width="100pt" height="100pt" version="1.1" viewBox="0 0 100 100" xmlns="http://www.w3.org/2000/svg">
 <path d="m62.746 0.50391c-0.37891 0.019532-0.67969 0.097656-1 0.16016-0.64062 0.11719-1.2695 0.29688-1.9336 0.50781-1.332 0.41797-2.793 0.98828-4.2539 1.5547-1.4609 0.56641-2.8984 1.1328-4.0234 1.543-0.5625 0.20703-1.1758 0.34375-1.5312 0.42578h-0.007812-0.007813c-0.35547-0.082031-0.96484-0.21484-1.5273-0.42187-1.125-0.41016-2.5625-0.98438-4.0234-1.5508s-2.9531-1.1406-4.2852-1.5547c-0.66406-0.20703-1.2734-0.37109-1.918-0.48828-0.64062-0.11719-1.2188-0.33594-2.4414 0.023437-1.2227 0.35938-1.6172 0.85156-2.0938 1.3008-0.47656 0.44531-0.89453 0.92188-1.3438 1.457-0.89453 1.0703-1.8516 2.3477-2.7695 3.6133-0.92188 1.2656-1.8125 2.5391-2.5391 3.4922-0.36328 0.47656-0.79688 0.92188-1.0508 1.1836-0.34375 0.12109-0.9375 0.33594-1.5312 0.46875-1.168 0.26172-2.6836 0.55469-4.2188 0.86719s-3.0781 0.63672-4.4258 1.0078c-0.67187 0.18359-1.3008 0.38672-1.9023 0.63281-0.60547 0.24609-1.1875 0.39063-2.0195 1.3555-0.83203 0.96094-0.89844 1.5625-1.0547 2.1953-0.16016 0.63281-0.26562 1.2812-0.35547 1.9727-0.17188 1.3828-0.27734 2.957-0.36719 4.5234-0.089844 1.5625-0.16406 3.1016-0.25781 4.2969-0.046875 0.59766-0.17188 1.2188-0.24219 1.582l-0.007813 0.007812c-0.22266 0.28516-0.59766 0.78125-1.0195 1.207-0.83203 0.85937-1.957 1.9219-3.082 3.0117-1.1211 1.0938-2.2539 2.2227-3.1836 3.2617-0.46875 0.51953-0.87891 1.0039-1.2539 1.5391-0.37109 0.53516-0.80078 0.98828-0.98047 2.25-0.17969 1.2617 0.11328 1.8047 0.32422 2.4219 0.20703 0.62109 0.45312 1.1992 0.75391 1.8281 0.60547 1.2578 1.3789 2.6562 2.1484 4.0195 0.76953 1.3633 1.5391 2.7031 2.1055 3.7578 0.28516 0.52734 0.50781 1.1133 0.64062 1.4531-0.03125 0.36328-0.078125 0.98828-0.20312 1.5859-0.24609 1.1719-0.60547 2.6719-0.95703 4.1992-0.35547 1.5273-0.71094 3.0547-0.93359 4.4297-0.11328 0.6875-0.19922 1.332-0.22656 1.9844s-0.13672 1.2578 0.39062 2.418c0.52734 1.1602 1.0703 1.4727 1.582 1.8789s1.0469 0.76953 1.6406 1.1367c1.1875 0.73047 2.5742 1.4727 3.9609 2.2031 1.3867 0.73047 2.7734 1.457 3.8203 2.0391 0.52344 0.28906 1.0273 0.65625 1.3203 0.86719 0.17187 0.32422 0.46875 0.875 0.68359 1.4336 0.42578 1.1211 0.9375 2.5898 1.4648 4.0664 0.52734 1.4766 1.0625 2.9492 1.6172 4.2305 0.27734 0.64063 0.55859 1.2383 0.89063 1.8008 0.33203 0.5625 0.57031 1.1367 1.6406 1.8242 1.0703 0.6875 1.668 0.65234 2.3203 0.71875 0.64844 0.066407 1.2969 0.085938 1.9961 0.074219 1.3945-0.027343 2.9805-0.14844 4.543-0.28125 1.5625-0.13281 3.1055-0.29688 4.3047-0.37109 0.59375-0.039063 1.2188 0.007812 1.582 0.03125l0.007813 0.007812c0.32031 0.17969 0.86719 0.47656 1.3477 0.83203 0.96484 0.71094 2.1875 1.6758 3.4297 2.6289 1.2422 0.95703 2.4961 1.9062 3.6562 2.6797 0.57813 0.38672 1.1328 0.72656 1.7148 1.0195 0.58203 0.29297 1.0898 0.65234 2.3633 0.65234 1.2734 0 1.7656-0.34766 2.3516-0.64062 0.57812-0.29688 1.1172-0.64453 1.6992-1.0312 1.1562-0.77734 2.4336-1.7305 3.6719-2.6875 1.2422-0.95703 2.4609-1.9141 3.4258-2.625 0.48047-0.35547 1.0273-0.66016 1.3438-0.84375 0.36328-0.015625 0.98828-0.058594 1.5977-0.019531 1.1953 0.078125 2.7227 0.20703 4.2852 0.34375 1.5625 0.13281 3.1445 0.25391 4.5391 0.28125 0.69922 0.011718 1.3359 0.011718 1.9844-0.054688s1.2773-0.042968 2.3516-0.73047c1.0703-0.6875 1.293-1.2617 1.625-1.8242 0.33203-0.5625 0.60547-1.1562 0.88672-1.793 0.55469-1.2773 1.0977-2.7461 1.625-4.2227 0.52734-1.4766 1.0312-2.9375 1.457-4.0586 0.21484-0.55859 0.51172-1.1172 0.68359-1.4414 0.29297-0.21484 0.79688-0.59375 1.332-0.89062 1.043-0.58594 2.4219-1.2969 3.8086-2.0312 1.3867-0.73047 2.7617-1.4688 3.9492-2.2031 0.59375-0.36719 1.1367-0.72656 1.6484-1.1367 0.51172-0.40625 1.0469-0.70703 1.5742-1.8672 0.52734-1.1562 0.41797-1.7695 0.39062-2.4219-0.027344-0.65234-0.12109-1.2891-0.23047-1.9766-0.22656-1.3789-0.56641-2.9258-0.92188-4.4492-0.35547-1.5273-0.70703-3.0234-0.95312-4.1953-0.12109-0.58594-0.17188-1.2148-0.20703-1.5781v-0.007813c0.13672-0.33984 0.35938-0.91797 0.64062-1.4453 0.56641-1.0586 1.3359-2.4023 2.1055-3.7656 0.76953-1.3672 1.5352-2.7656 2.1367-4.0234 0.30078-0.62891 0.56641-1.2109 0.77344-1.832 0.20703-0.61719 0.48828-1.1641 0.30469-2.4219-0.17969-1.2617-0.60547-1.707-0.98047-2.2422-0.375-0.53125-0.79297-1.0352-1.2578-1.5547-0.93359-1.0352-2.0508-2.1367-3.1719-3.2305-1.125-1.0898-2.2539-2.168-3.0977-3.0195-0.43359-0.44141-0.80469-0.94922-1.0234-1.2344-0.074219-0.35547-0.21094-0.95703-0.25781-1.5469-0.09375-1.1953-0.15234-2.7461-0.24219-4.3125-0.09375-1.5625-0.19531-3.1484-0.36719-4.5352-0.085937-0.69141-0.19531-1.3281-0.35547-1.9648-0.15625-0.63281-0.20703-1.2344-1.043-2.1953-0.83203-0.96484-1.4414-1.1211-2.043-1.3672-0.60547-0.24609-1.2344-0.43359-1.9062-0.61719-1.3438-0.36719-2.8828-0.6875-4.418-1-1.5352-0.3125-3.0664-0.60547-4.2344-0.86719-0.58203-0.13281-1.168-0.35156-1.5156-0.47656-0.25-0.25781-0.6875-0.69922-1.0508-1.1797-0.72656-0.95312-1.6406-2.2227-2.5625-3.4922-0.92188-1.2656-1.8516-2.5352-2.7461-3.6055-0.44531-0.53516-0.87891-1.0195-1.3555-1.4648-0.47656-0.44531-0.86719-0.93359-2.0859-1.293-0.60938-0.17969-1.0625-0.22266-1.4414-0.20312zm-25.117 6.4531c0.21875 0.058594 0.36719 0.097657 0.66016 0.1875 1.0469 0.32812 2.4609 0.85547 3.8867 1.4102 1.4258 0.55469 2.8672 1.1172 4.1367 1.582 1.2695 0.46094 1.8594 0.92969 3.6758 0.92969 1.8125 0 2.4023-0.45312 3.6758-0.91406 1.2695-0.46484 2.7188-1.0391 4.1445-1.5938 1.4258-0.55469 2.8359-1.0938 3.8828-1.4219 0.29688-0.09375 0.45703-0.12109 0.67578-0.17578 0.15234 0.16406 0.27344 0.27344 0.46875 0.50781 0.70312 0.84375 1.6016 2.043 2.5039 3.2773 0.89844 1.2383 1.8008 2.5195 2.6172 3.5938 0.82031 1.0781 1.0664 1.7773 2.5938 2.7578 1.5273 0.98047 2.2695 0.91016 3.5898 1.207 1.3203 0.29687 2.8477 0.59766 4.3438 0.90234 1.5 0.30469 2.9648 0.60938 4.0234 0.89844 0.30078 0.082031 0.44922 0.16797 0.66406 0.23828 0.039063 0.22266 0.078125 0.37891 0.11719 0.68359 0.13672 1.0898 0.24609 2.5742 0.33594 4.1016s0.16797 3.0898 0.27344 4.4375c0.10547 1.3477-0.078126 2.0625 0.67578 3.7109 0.75391 1.6484 1.4258 2.0039 2.375 2.9648 0.94922 0.96484 2.0703 2.0391 3.168 3.1055 1.0977 1.0664 2.1602 2.1328 2.8945 2.9492 0.20312 0.22656 0.30469 0.35547 0.44531 0.53125-0.085937 0.21094-0.14062 0.36328-0.27344 0.64844-0.47266 0.98828-1.1953 2.3047-1.9453 3.6367s-1.5273 2.6836-2.168 3.875c-0.64062 1.1914-1.1758 1.7031-1.4336 3.4961-0.25781 1.7969 0.10156 2.4531 0.37891 3.7773s0.65625 2.832 1 4.3203c0.34766 1.4883 0.67969 2.9648 0.85547 4.0469 0.050781 0.30469 0.042968 0.45703 0.066406 0.68359-0.1875 0.12891-0.3125 0.23047-0.57422 0.39062-0.93359 0.57812-2.25 1.2969-3.6016 2.0117-1.3516 0.71094-2.7305 1.4414-3.9102 2.0977-1.1836 0.65625-1.9219 0.79688-3.1094 2.168-1.1875 1.3711-1.2188 2.1211-1.7031 3.3867-0.48047 1.2617-1.0039 2.7344-1.5195 4.1758-0.51562 1.4414-1.0391 2.8398-1.4766 3.8438-0.125 0.28125-0.19922 0.42578-0.30078 0.62891-0.22656 0.007813-0.38281 0.03125-0.69141 0.023437-1.0938-0.019531-2.5977-0.13281-4.1211-0.26172-1.5234-0.12891-3.0703-0.29297-4.418-0.37891-1.3516-0.085938-2.0586-0.34375-3.7969 0.16406-1.7422 0.51172-2.168 1.1211-3.2539 1.9258-1.0898 0.80078-2.3164 1.7617-3.5273 2.6953-1.2109 0.93359-2.4141 1.832-3.3281 2.4414-0.25781 0.17578-0.40234 0.25-0.59766 0.36719-0.19141-0.11719-0.33984-0.19531-0.59375-0.36719-0.91016-0.60938-2.1172-1.5078-3.332-2.4414-1.2109-0.93359-2.4336-1.8867-3.5195-2.6914-1.0898-0.80078-1.5312-1.418-3.2734-1.9297-1.7383-0.50781-2.4219-0.21875-3.7695-0.13281-1.3516 0.085937-2.9102 0.23047-4.4336 0.35937-1.5234 0.13281-3.0156 0.23047-4.1133 0.25-0.30859 0.007813-0.46094-0.007812-0.6875-0.019531-0.10156-0.20312-0.20703-0.33594-0.33203-0.62109-0.4375-1.0039-0.94922-2.4102-1.4648-3.8516-0.51562-1.4375-1.0234-2.9102-1.5078-4.1758-0.48047-1.2617-0.52734-2.0078-1.7148-3.3789-1.1875-1.3711-1.9102-1.5234-3.0938-2.1797s-2.5859-1.3594-3.9375-2.0742c-1.3516-0.71484-2.668-1.4336-3.6016-2.0078-0.25781-0.16016-0.38281-0.26172-0.56641-0.39062 0.023438-0.22656 0.03125-0.39453 0.078125-0.70312 0.17578-1.082 0.50781-2.5508 0.85547-4.0391 0.34375-1.4883 0.71094-3.0039 0.98828-4.3281 0.27734-1.3242 0.63672-1.9688 0.37891-3.7656-0.25781-1.7969-0.80078-2.3203-1.4414-3.5117-0.63672-1.1914-1.4062-2.5352-2.1602-3.8672-0.75-1.332-1.4727-2.6562-1.9453-3.6445-0.13281-0.27734-0.19922-0.42188-0.28516-0.62891 0.14453-0.17969 0.24609-0.31641 0.45703-0.55078 0.73437-0.81641 1.793-1.8633 2.8867-2.9297 1.0977-1.0664 2.2188-2.1445 3.168-3.1055 0.94922-0.96484 1.6094-1.3086 2.3633-2.9609 0.75391-1.6484 0.57812-2.375 0.68359-3.7227 0.10547-1.3477 0.19922-2.9297 0.28516-4.457 0.085938-1.5273 0.17578-3.0195 0.3125-4.1094 0.039063-0.30859 0.082032-0.45312 0.12109-0.67578 0.21484-0.070313 0.35938-0.13672 0.66016-0.21875 1.0586-0.28906 2.5234-0.59375 4.0234-0.89844 1.5-0.30469 3.0469-0.61719 4.3633-0.91406 1.3203-0.29688 2.0625-0.22656 3.5898-1.207 1.5273-0.98047 1.7773-1.6836 2.5938-2.7578 0.81641-1.0781 1.7188-2.3477 2.6172-3.582 0.89844-1.2383 1.7891-2.4297 2.4922-3.2695 0.20312-0.24219 0.32812-0.36328 0.48047-0.53125zm9.2344 20.57v3.9375c-0.89062 0.125-1.7617 0.3125-2.6055 0.56641-1.6133 0.46875-2.9258 1.0469-3.9375 1.793-1.3047 0.92969-2.332 2.1172-3.1016 3.5352-0.75 1.4102-1.1523 2.9766-1.1523 4.625 0 1.8164 0.47656 3.5117 1.3906 5.0352 0.94531 1.5156 2.3438 2.7305 4.0938 3.582 1.7695 0.82813 4.7422 1.7344 9.0195 2.8125 3.1367 0.78906 5.1367 1.5234 5.6758 1.875 0.95703 0.63281 1.3359 1.3398 1.3359 2.4102 0 1.2188-0.48438 2.207-1.6367 3.1875-1.0742 0.89453-2.8477 1.4141-5.4023 1.4141-2.5156 0-4.3789-0.55859-5.6758-1.6289-1.2812-1.0781-2.0781-2.6133-2.3789-4.7656l-0.10547-0.71875h-7.5977l0.18359 0.98828c0.67188 3.7773 2.3125 7.5469 4.9023 9.6055 1.8047 1.4219 4.1602 2.2852 6.9961 2.6797v4.0234h6.2539v-3.9141c1.793-0.20703 3.4688-0.62109 5.0039-1.2891h0.023438c2.25-0.99609 4.0078-2.418 5.2188-4.2578 1.2188-1.8398 1.8516-3.8398 1.8516-5.9375 0-2.1055-0.51562-3.9414-1.5508-5.4336-1.0156-1.4648-2.4219-2.6094-4.1797-3.3516v0.03125c-1.707-0.75-4.5742-1.6562-8.6992-2.7578-2.832-0.77344-4.582-1.2969-5.0547-1.4727-0.89062-0.36719-1.5-0.80469-1.8477-1.2617v-0.019532c-0.37109-0.46875-0.53906-0.92187-0.53906-1.5 0-0.91797 0.39453-1.6953 1.3906-2.4648 0.89453-0.69141 2.6172-1.1484 5.1953-1.1484 2.1367 0 3.6719 0.48047 4.707 1.3125 1.082 0.85938 1.7266 2.0117 1.9609 3.6055l0.10547 0.69531h7.4414l-0.16406-0.96484c-0.37891-2.293-1.0664-4.8633-2.2148-6.418-1.0859-1.4961-2.7539-2.6094-4.9023-3.4258-1.1523-0.44141-2.4062-0.75391-3.7461-0.95703v-4.0273z" fill="#363471"/>
</svg>
