<?xml version="1.0" encoding="UTF-8"?>
<svg width="100pt" height="100pt" version="1.1" viewBox="0 0 100 100" xmlns="http://www.w3.org/2000/svg">
 <g fill="#363471">
  <path d="m59.285 60.984c-11.465 0-20.793-9.3281-20.793-20.797 0-11.465 9.3281-20.793 20.793-20.793 11.469 0 20.797 9.3281 20.797 20.793 0 11.469-9.3281 20.797-20.797 20.797zm0-36.59c-8.707 0-15.793 7.0859-15.793 15.793 0 8.7109 7.0859 15.797 15.793 15.797 8.7109 0 15.797-7.0859 15.797-15.797 0-8.707-7.0859-15.793-15.797-15.793z"/>
  <path d="m43.695 60.824c-1.0234 0-2.0469-0.39062-2.8281-1.1719-1.5625-1.5625-1.5625-4.0977 0.003906-5.6562l1.1719-1.1719c1.5625-1.5586 4.0938-1.5625 5.6562 0.003906 1.5625 1.5625 1.5625 4.0977-0.003907 5.6562l-1.1719 1.1719c-0.78125 0.77734-1.8047 1.168-2.8281 1.168z"/>
  <path d="m22.418 82.105c-1.0234 0-2.0469-0.39062-2.8281-1.1719-1.5625-1.5625-1.5625-4.0938 0-5.6562l15.387-15.387c1.5625-1.5625 4.0938-1.5625 5.6562 0s1.5625 4.0938 0 5.6562l-15.387 15.387c-0.78125 0.78125-1.8047 1.1719-2.8281 1.1719z"/>
 </g>
</svg>
